<?xml version="1.0" encoding="utf-8"?>
<!-- Generator: Adobe Illustrator 21.1.0, SVG Export Plug-In . SVG Version: 6.00 Build 0)  -->
<svg version="1.1" id="Layer_1" xmlns="http://www.w3.org/2000/svg" xmlns:xlink="http://www.w3.org/1999/xlink" x="0px" y="0px"
	 viewBox="0 0 100 100" style="enable-background:new 0 0 100 100;" xml:space="preserve">
<style type="text/css">
	.st0{fill:#EAEBE7;}
	.st1{clip-path:url(#SVGID_2_);}
	.st2{fill:#F1CCAC;}
	.st3{fill:#685046;}
	.st4{fill:#F0835B;}
</style>
<circle class="st0" cx="50" cy="50" r="50"/>
<g>
	<defs>
		<circle id="SVGID_1_" cx="50" cy="50" r="50"/>
	</defs>
	<clipPath id="SVGID_2_">
		<use xlink:href="#SVGID_1_"  style="overflow:visible;"/>
	</clipPath>
	<g class="st1">
		<polygon class="st2" points="58.6,74.8 41.4,74.8 43.1,60.6 56.9,60.6 		"/>
		<g>
			<ellipse class="st2" cx="50" cy="36.4" rx="18.2" ry="25.6"/>
			<path class="st3" d="M60.4,21.8c0,0-5,9.7-26.3,7.8l-2.1,2.1c0,0-0.4-23.3,18.4-23.3s17.5,22.9,17.5,22.9S62.1,25.6,60.4,21.8z"
				/>
			<path class="st3" d="M49.8,63.1c-17.6,0-18-26.5-18-26.5s3.7,10.6,8.1,10.4s5-3.6,10.1-3.6s5.8,3.4,10.1,3.6s8.1-10.4,8.1-10.4
				s-0.4,26.5-18,26.5H49.8z M50,47.7c-2.4,0-4.3,0.7-4.3,1.7c0,0.9,1.9,1.7,4.3,1.7s4.3-0.7,4.3-1.7C54.3,48.4,52.4,47.7,50,47.7z"
				/>
		</g>
		<path class="st4" d="M50.8,72.9c6,0,6.9-6.4,6.9-6.4s7.2,1,11.8,3.2c4.6,2.2,5.8,4.6,6.4,7.2s4.6,15.2,4.6,19c0,0-14.7,7-29.7,7
			h-1.2c-15,0-30-7-30-7c0-3.8,4-16.4,4.6-19s1.8-5,6.4-7.2c4.6-2.2,11.8-3.2,11.8-3.2s0.9,6.4,6.9,6.4H50.8z"/>
	</g>
</g>
</svg>
