<?xml version="1.0" encoding="utf-8"?>
<!-- Generator: Adobe Illustrator 16.0.0, SVG Export Plug-In . SVG Version: 6.00 Build 0)  -->
<!DOCTYPE svg PUBLIC "-//W3C//DTD SVG 1.1//EN" "http://www.w3.org/Graphics/SVG/1.1/DTD/svg11.dtd">
<svg version="1.1" id="Layer_1" xmlns="http://www.w3.org/2000/svg" xmlns:xlink="http://www.w3.org/1999/xlink" x="0px" y="0px"
	 width="521px" height="95.5px" viewBox="0 0 521 95.5" enable-background="new 0 0 521 95.5" xml:space="preserve">
<g>
	<path fill="#FFFFFF" d="M154.561,20.189l-3.255,2.023c-2.812-3.734-6.649-5.602-11.513-5.602c-3.886,0-7.113,1.25-9.681,3.75
		c-2.568,2.5-3.852,5.537-3.852,9.11c0,2.324,0.591,4.512,1.772,6.562c1.181,2.051,2.803,3.643,4.863,4.775
		c2.061,1.133,4.37,1.699,6.928,1.699c4.687,0,8.515-1.867,11.483-5.602l3.255,2.141c-1.525,2.297-3.573,4.079-6.144,5.345
		c-2.571,1.266-5.499,1.899-8.784,1.899c-5.044,0-9.229-1.603-12.552-4.81c-3.324-3.206-4.986-7.107-4.986-11.702
		c0-3.089,0.777-5.958,2.332-8.608c1.554-2.649,3.69-4.717,6.408-6.203c2.717-1.486,5.758-2.229,9.121-2.229
		c2.111,0,4.15,0.322,6.115,0.968c1.965,0.645,3.632,1.486,5,2.522C152.44,17.266,153.603,18.586,154.561,20.189z"/>
	<path fill="#FFFFFF" d="M158.832,1.243h4.106V45.47h-4.106V1.243z"/>
	<path fill="#FFFFFF" d="M183.573,12.74c4.916,0,8.99,1.779,12.222,5.337c2.938,3.246,4.407,7.088,4.407,11.526
		c0,4.458-1.553,8.354-4.657,11.688c-3.104,3.333-7.096,5-11.972,5c-4.897,0-8.897-1.667-12.001-5
		c-3.105-3.333-4.657-7.229-4.657-11.688c0-4.418,1.468-8.25,4.407-11.497C174.553,14.529,178.637,12.74,183.573,12.74z
		 M183.558,16.757c-3.414,0-6.348,1.261-8.8,3.784c-2.453,2.522-3.679,5.572-3.679,9.15c0,2.307,0.559,4.458,1.678,6.452
		c1.118,1.994,2.629,3.534,4.532,4.619c1.903,1.085,3.993,1.627,6.269,1.627c2.275,0,4.365-0.542,6.269-1.627
		c1.903-1.085,3.414-2.625,4.532-4.619c1.118-1.995,1.678-4.145,1.678-6.452c0-3.578-1.231-6.628-3.694-9.15
		C189.881,18.019,186.952,16.757,183.558,16.757z"/>
	<path fill="#FFFFFF" d="M204.267,13.561h4.106v14.899c0,3.637,0.196,6.14,0.587,7.508c0.587,1.956,1.708,3.5,3.363,4.634
		c1.654,1.134,3.627,1.701,5.918,1.701s4.234-0.552,5.831-1.657c1.596-1.104,2.697-2.556,3.304-4.355
		c0.411-1.232,0.617-3.842,0.617-7.831V13.561h4.194v15.662c0,4.399-0.513,7.713-1.54,9.942c-1.026,2.229-2.571,3.974-4.634,5.235
		c-2.063,1.261-4.648,1.892-7.757,1.892c-3.108,0-5.704-0.631-7.787-1.892c-2.082-1.261-3.637-3.021-4.663-5.279
		s-1.54-5.655-1.54-10.191V13.561z"/>
	<path fill="#FFFFFF" d="M270.156,1.243V45.47h-4.048v-5.484c-1.721,2.092-3.651,3.666-5.792,4.722
		c-2.141,1.056-4.482,1.584-7.024,1.584c-4.517,0-8.374-1.637-11.57-4.913c-3.197-3.274-4.795-7.259-4.795-11.951
		c0-4.594,1.613-8.524,4.839-11.79c3.226-3.265,7.107-4.897,11.643-4.897c2.62,0,4.99,0.557,7.112,1.671
		c2.121,1.115,3.983,2.786,5.587,5.015V1.243H270.156z M253.746,16.699c-2.285,0-4.395,0.562-6.328,1.685
		c-1.934,1.123-3.472,2.701-4.614,4.731c-1.143,2.031-1.713,4.179-1.713,6.444c0,2.247,0.576,4.395,1.728,6.445
		c1.152,2.051,2.7,3.647,4.643,4.79s4.028,1.714,6.255,1.714c2.246,0,4.374-0.566,6.386-1.699s3.559-2.666,4.644-4.599
		c1.083-1.934,1.626-4.111,1.626-6.533c0-3.691-1.216-6.777-3.647-9.257C260.293,17.939,257.301,16.699,253.746,16.699z"/>
</g>
<g>
	<path fill="#FFFFFF" d="M154.561,68.949l-3.255,2.024c-2.812-3.735-6.649-5.602-11.513-5.602c-3.886,0-7.113,1.25-9.681,3.75
		c-2.568,2.5-3.852,5.537-3.852,9.111c0,2.324,0.591,4.512,1.772,6.562c1.181,2.051,2.803,3.643,4.863,4.775
		c2.061,1.133,4.37,1.699,6.928,1.699c4.687,0,8.515-1.867,11.483-5.602l3.255,2.141c-1.525,2.297-3.573,4.078-6.144,5.345
		c-2.571,1.266-5.499,1.899-8.784,1.899c-5.044,0-9.229-1.604-12.552-4.81c-3.324-3.207-4.986-7.107-4.986-11.702
		c0-3.089,0.777-5.958,2.332-8.607c1.554-2.649,3.69-4.717,6.408-6.203c2.717-1.486,5.758-2.229,9.121-2.229
		c2.111,0,4.15,0.322,6.115,0.968c1.965,0.645,3.632,1.486,5,2.522C152.44,66.026,153.603,67.346,154.561,68.949z"/>
	<path fill="#FFFFFF" d="M174.552,61.5c4.916,0,8.99,1.779,12.222,5.337c2.938,3.246,4.407,7.088,4.407,11.526
		c0,4.458-1.553,8.354-4.657,11.687c-3.104,3.334-7.096,5.001-11.972,5.001c-4.897,0-8.897-1.667-12.001-5.001
		c-3.105-3.333-4.657-7.229-4.657-11.687c0-4.419,1.468-8.251,4.407-11.497C165.531,63.289,169.615,61.5,174.552,61.5z
		 M174.537,65.517c-3.414,0-6.348,1.261-8.8,3.784s-3.679,5.572-3.679,9.15c0,2.307,0.559,4.458,1.678,6.452
		c1.118,1.994,2.629,3.534,4.532,4.619s3.993,1.628,6.269,1.628c2.275,0,4.365-0.543,6.269-1.628
		c1.903-1.085,3.414-2.625,4.532-4.619c1.118-1.994,1.678-4.146,1.678-6.452c0-3.578-1.231-6.628-3.694-9.15
		C180.859,66.778,177.931,65.517,174.537,65.517z"/>
	<path fill="#FFFFFF" d="M195.773,62.32h4.106v5.719c1.642-2.189,3.46-3.827,5.455-4.913c1.994-1.085,4.165-1.627,6.511-1.627
		c2.385,0,4.502,0.606,6.35,1.818s3.211,2.845,4.091,4.897c0.88,2.053,1.32,5.25,1.32,9.59v16.424H219.5V79.008
		c0-3.675-0.153-6.129-0.457-7.361c-0.476-2.111-1.389-3.7-2.738-4.766c-1.349-1.065-3.109-1.598-5.279-1.598
		c-2.484,0-4.708,0.821-6.673,2.463c-1.966,1.643-3.261,3.676-3.887,6.101c-0.391,1.584-0.586,4.478-0.586,8.681v11.702h-4.106
		V62.32z"/>
	<path fill="#FFFFFF" d="M232.979,50.472h4.106V62.32h6.511v3.549h-6.511v28.36h-4.106v-28.36h-5.602V62.32h5.602V50.472z"/>
	<path fill="#FFFFFF" d="M278.543,62.32v31.909h-4.048v-5.484c-1.721,2.093-3.651,3.666-5.792,4.722s-4.482,1.584-7.024,1.584
		c-4.516,0-8.373-1.638-11.57-4.912c-3.197-3.275-4.795-7.259-4.795-11.951c0-4.595,1.613-8.525,4.839-11.791
		c3.226-3.265,7.107-4.897,11.643-4.897c2.62,0,4.991,0.557,7.112,1.671c2.121,1.115,3.983,2.786,5.587,5.015V62.32H278.543z
		 M262.134,65.458c-2.285,0-4.395,0.562-6.328,1.685c-1.934,1.123-3.472,2.701-4.614,4.732c-1.143,2.03-1.713,4.179-1.713,6.444
		c0,2.246,0.576,4.395,1.728,6.444c1.152,2.051,2.7,3.647,4.643,4.79s4.028,1.714,6.255,1.714c2.246,0,4.374-0.566,6.386-1.699
		s3.559-2.666,4.644-4.6c1.083-1.933,1.626-4.11,1.626-6.532c0-3.691-1.216-6.776-3.647-9.257
		C268.681,66.699,265.688,65.458,262.134,65.458z"/>
	<path fill="#FFFFFF" d="M315.749,68.949l-3.256,2.024c-2.812-3.735-6.649-5.602-11.513-5.602c-3.886,0-7.113,1.25-9.682,3.75
		c-2.567,2.5-3.852,5.537-3.852,9.111c0,2.324,0.591,4.512,1.771,6.562c1.182,2.051,2.803,3.643,4.863,4.775
		s4.369,1.699,6.928,1.699c4.688,0,8.515-1.867,11.483-5.602l3.256,2.141c-1.525,2.297-3.573,4.078-6.145,5.345
		c-2.571,1.266-5.499,1.899-8.784,1.899c-5.044,0-9.229-1.604-12.552-4.81c-3.324-3.207-4.986-7.107-4.986-11.702
		c0-3.089,0.777-5.958,2.332-8.607s3.69-4.717,6.408-6.203s5.758-2.229,9.121-2.229c2.111,0,4.149,0.322,6.114,0.968
		c1.966,0.645,3.632,1.486,5.001,2.522C313.627,66.026,314.791,67.346,315.749,68.949z"/>
	<path fill="#FFFFFF" d="M324.213,50.472h4.105V62.32h6.511v3.549h-6.511v28.36h-4.105v-28.36h-5.602V62.32h5.602V50.472z"/>
	<path fill="#FFFFFF" d="M382.581,68.949l-3.256,2.024c-2.812-3.735-6.649-5.602-11.513-5.602c-3.886,0-7.113,1.25-9.682,3.75
		c-2.567,2.5-3.852,5.537-3.852,9.111c0,2.324,0.591,4.512,1.771,6.562c1.182,2.051,2.803,3.643,4.863,4.775
		s4.369,1.699,6.928,1.699c4.688,0,8.515-1.867,11.483-5.602l3.256,2.141c-1.525,2.297-3.573,4.078-6.145,5.345
		c-2.571,1.266-5.499,1.899-8.784,1.899c-5.044,0-9.229-1.604-12.552-4.81c-3.324-3.207-4.986-7.107-4.986-11.702
		c0-3.089,0.777-5.958,2.332-8.607s3.69-4.717,6.408-6.203s5.758-2.229,9.121-2.229c2.111,0,4.149,0.322,6.114,0.968
		c1.966,0.645,3.632,1.486,5.001,2.522C380.459,66.026,381.623,67.346,382.581,68.949z"/>
	<path fill="#FFFFFF" d="M414.331,83.642l3.461,1.818c-1.135,2.229-2.446,4.028-3.934,5.396c-1.487,1.369-3.16,2.41-5.02,3.124
		c-1.859,0.713-3.964,1.07-6.312,1.07c-5.206,0-9.276-1.706-12.212-5.118c-2.936-3.411-4.403-7.268-4.403-11.569
		c0-4.048,1.242-7.655,3.729-10.822c3.15-4.028,7.367-6.042,12.651-6.042c5.44,0,9.785,2.063,13.033,6.188
		c2.31,2.914,3.483,6.551,3.522,10.91h-28.712c0.078,3.706,1.263,6.744,3.553,9.114s5.119,3.556,8.486,3.556
		c1.625,0,3.205-0.282,4.742-0.848c1.536-0.564,2.843-1.314,3.92-2.249C411.913,87.235,413.078,85.727,414.331,83.642z
		 M414.331,75.049c-0.548-2.189-1.346-3.939-2.394-5.25c-1.047-1.309-2.432-2.365-4.154-3.167c-1.724-0.802-3.534-1.203-5.433-1.203
		c-3.133,0-5.824,1.007-8.075,3.021c-1.645,1.466-2.888,3.666-3.729,6.599H414.331z"/>
	<path fill="#FFFFFF" d="M423.5,62.32h4.105v5.719c1.643-2.189,3.461-3.827,5.455-4.913c1.995-1.085,4.165-1.627,6.511-1.627
		c2.386,0,4.502,0.606,6.35,1.818s3.212,2.845,4.092,4.897c0.88,2.053,1.319,5.25,1.319,9.59v16.424h-4.105V79.008
		c0-3.675-0.152-6.129-0.457-7.361c-0.476-2.111-1.389-3.7-2.737-4.766c-1.35-1.065-3.109-1.598-5.28-1.598
		c-2.483,0-4.708,0.821-6.673,2.463c-1.966,1.643-3.261,3.676-3.887,6.101c-0.392,1.584-0.587,4.478-0.587,8.681v11.702H423.5V62.32
		z"/>
	<path fill="#FFFFFF" d="M460.705,50.472h4.105V62.32h6.511v3.549h-6.511v28.36h-4.105v-28.36h-5.602V62.32h5.602V50.472z"/>
	<path fill="#FFFFFF" d="M472.923,62.32h4.194v4.664c1.251-1.838,2.57-3.211,3.959-4.121s2.835-1.364,4.341-1.364
		c1.134,0,2.346,0.362,3.637,1.085l-2.141,3.461c-0.861-0.372-1.584-0.558-2.171-0.558c-1.368,0-2.688,0.562-3.959,1.687
		c-1.271,1.125-2.239,2.87-2.903,5.235c-0.509,1.818-0.763,5.495-0.763,11.027v10.793h-4.194V62.32z"/>
	<path fill="#FFFFFF" d="M516.17,83.642l3.461,1.818c-1.135,2.229-2.446,4.028-3.934,5.396c-1.487,1.369-3.16,2.41-5.02,3.124
		c-1.859,0.713-3.964,1.07-6.312,1.07c-5.206,0-9.276-1.706-12.212-5.118c-2.936-3.411-4.403-7.268-4.403-11.569
		c0-4.048,1.242-7.655,3.729-10.822c3.15-4.028,7.367-6.042,12.651-6.042c5.44,0,9.785,2.063,13.033,6.188
		c2.31,2.914,3.483,6.551,3.522,10.91h-28.712c0.078,3.706,1.263,6.744,3.553,9.114s5.119,3.556,8.486,3.556
		c1.625,0,3.205-0.282,4.742-0.848c1.536-0.564,2.843-1.314,3.92-2.249C513.752,87.235,514.917,85.727,516.17,83.642z
		 M516.17,75.049c-0.548-2.189-1.346-3.939-2.394-5.25c-1.047-1.309-2.432-2.365-4.154-3.167c-1.724-0.802-3.534-1.203-5.433-1.203
		c-3.133,0-5.824,1.007-8.075,3.021c-1.645,1.466-2.888,3.666-3.729,6.599H516.17z"/>
</g>
<path fill="#FFFFFF" d="M92.894,53.203c0.615-2.494,0.967-5.065,0.967-7.685c0-17.48-14.215-31.7-31.699-31.7
	c-12.938,0-24.367,7.812-29.23,19.461c-0.585-0.032-1.154-0.107-1.743-0.107C13.995,33.172,0,47.159,0,64.354
	s13.995,31.188,31.188,31.188h0.181H85.14h6.191c11.72,0,21.248-9.533,21.248-21.253C112.579,63.108,103.869,54.017,92.894,53.203"
	/>
<path fill="#231F20" d="M79.67,58.122c0-12.915-10.465-23.38-23.379-23.38s-23.381,10.466-23.381,23.38
	c0,0.054,0.006,0.106,0.008,0.156v3.123c0,4.064,0.966,6.494,2.074,8.683c1.21,2.388,4.702,4.553,7.861,4.553h2.558
	c0.846,0,1.532-0.687,1.532-1.533V61.347c0-1.695-1.373-3.069-3.067-3.069h-1.022c-1.39,0-3.823,0.612-4.916,2.036l-0.046,0.01
	v-2.046H37.9c-0.001-0.05-0.009-0.102-0.009-0.156c0-10.145,8.253-18.397,18.399-18.397c10.144,0,18.4,8.252,18.4,18.397
	c0,0.054-0.008,0.106-0.009,0.156h0.015v2.046l-0.044-0.01c-1.093-1.423-3.524-2.036-4.917-2.036h-1.021
	c-1.695,0-3.068,1.374-3.068,3.069v11.756c0,0.847,0.686,1.533,1.533,1.533h2.556c1.604,0,3.292-0.562,4.727-1.423
	c-0.893,4.699-4.392,8.473-8.935,9.786c-0.426-2.094-2.275-3.67-4.495-3.67c-2.533,0-4.586,2.055-4.586,4.586
	c0,2.535,2.053,4.586,4.586,4.586c0.055,0,0.108-0.013,0.162-0.014h1.137c9.605-0.171,17.337-7.994,17.337-17.638V58.278h-0.007
	C79.664,58.228,79.67,58.176,79.67,58.122"/>
</svg>
