<?xml version="1.0" encoding="utf-8"?>
<!-- Generator: Adobe Illustrator 16.0.0, SVG Export Plug-In . SVG Version: 6.00 Build 0)  -->
<!DOCTYPE svg PUBLIC "-//W3C//DTD SVG 1.1//EN" "http://www.w3.org/Graphics/SVG/1.1/DTD/svg11.dtd">
<svg version="1.1" id="Layer_1" xmlns="http://www.w3.org/2000/svg" xmlns:xlink="http://www.w3.org/1999/xlink" x="0px" y="0px"
	 width="521px" height="138px" viewBox="-161 0 521 138" enable-background="new -161 0 521 138" xml:space="preserve">
<g>
	<path fill="#FFFFFF" d="M46.428,27.044l-4.647,2.889c-4.015-5.331-9.492-7.996-16.434-7.996c-5.547,0-10.154,1.784-13.82,5.353
		c-3.666,3.568-5.499,7.903-5.499,13.004c0,3.318,0.843,6.44,2.53,9.368c1.686,2.927,4,5.199,6.941,6.815
		c2.941,1.617,6.237,2.426,9.889,2.426c6.691,0,12.155-2.665,16.393-7.996l4.647,3.056c-2.177,3.279-5.101,5.822-8.771,7.63
		c-3.67,1.807-7.85,2.711-12.539,2.711c-7.201,0-13.173-2.288-17.918-6.866c-4.745-4.577-7.117-10.145-7.117-16.704
		c0-4.409,1.109-8.504,3.329-12.287c2.218-3.781,5.268-6.733,9.147-8.854c3.879-2.121,8.219-3.182,13.02-3.182
		c3.014,0,5.923,0.46,8.729,1.381c2.805,0.921,5.184,2.121,7.138,3.601C43.399,22.873,45.06,24.756,46.428,27.044z"/>
	<path fill="#FFFFFF" d="M52.523,0h5.861v63.131h-5.861V0z"/>
	<path fill="#FFFFFF" d="M87.84,16.411c7.017,0,12.833,2.54,17.446,7.619c4.194,4.633,6.291,10.117,6.291,16.453
		c0,6.363-2.216,11.925-6.647,16.683c-4.432,4.759-10.128,7.138-17.089,7.138c-6.99,0-12.701-2.379-17.132-7.138
		c-4.432-4.758-6.647-10.32-6.647-16.683c0-6.307,2.096-11.778,6.291-16.411C74.964,18.964,80.794,16.411,87.84,16.411z
		 M87.819,22.146c-4.874,0-9.061,1.8-12.562,5.4s-5.251,7.954-5.251,13.062c0,3.294,0.798,6.364,2.395,9.21
		c1.596,2.847,3.752,5.044,6.47,6.593c2.717,1.549,5.7,2.324,8.949,2.324s6.231-0.774,8.949-2.324
		c2.716-1.549,4.873-3.747,6.47-6.593c1.596-2.847,2.395-5.917,2.395-9.21c0-5.107-1.757-9.461-5.273-13.062
		C96.844,23.947,92.664,22.146,87.819,22.146z"/>
	<path fill="#FFFFFF" d="M117.379,17.583h5.861V38.85c0,5.191,0.279,8.764,0.838,10.718c0.839,2.791,2.438,4.996,4.801,6.614
		c2.361,1.619,5.177,2.428,8.448,2.428c3.27,0,6.044-0.788,8.322-2.365c2.278-1.576,3.851-3.648,4.717-6.217
		c0.586-1.758,0.88-5.484,0.88-11.178V17.583h5.986v22.356c0,6.279-0.732,11.01-2.198,14.191c-1.465,3.182-3.67,5.673-6.615,7.473
		c-2.944,1.8-6.635,2.7-11.073,2.7s-8.143-0.9-11.115-2.7c-2.973-1.8-5.191-4.312-6.657-7.536
		c-1.465-3.223-2.198-8.072-2.198-14.548V17.583H117.379z"/>
	<path fill="#FFFFFF" d="M211.432,0v63.131h-5.777v-7.828c-2.456,2.987-5.213,5.232-8.268,6.74
		c-3.058,1.507-6.398,2.261-10.027,2.261c-6.446,0-11.952-2.337-16.514-7.012C166.282,52.618,164,46.931,164,40.232
		c0-6.558,2.302-12.168,6.908-16.83c4.605-4.661,10.145-6.991,16.619-6.991c3.742,0,7.125,0.795,10.152,2.386
		c3.028,1.591,5.688,3.977,7.977,7.159V0H211.432z M188.008,22.063c-3.262,0-6.271,0.801-9.032,2.404
		c-2.761,1.604-4.956,3.854-6.586,6.754c-1.631,2.899-2.446,5.966-2.446,9.199c0,3.206,0.822,6.273,2.467,9.199
		c1.645,2.927,3.854,5.207,6.627,6.837c2.772,1.632,5.751,2.447,8.929,2.447c3.205,0,6.244-0.809,9.114-2.426
		c2.872-1.617,5.082-3.805,6.629-6.564c1.547-2.76,2.319-5.869,2.319-9.325c0-5.269-1.734-9.673-5.204-13.214
		C197.354,23.833,193.082,22.063,188.008,22.063z"/>
</g>
<g>
	<path fill="#FFFFFF" d="M0,74.59h5.986v6.656c1.786-2.624,3.67-4.585,5.652-5.881c1.981-1.299,4.046-1.947,6.196-1.947
		c1.618,0,3.349,0.516,5.191,1.549l-3.056,4.94c-1.229-0.53-2.261-0.798-3.098-0.798c-1.954,0-3.838,0.805-5.652,2.41
		c-1.814,1.604-3.196,4.096-4.145,7.472c-0.726,2.596-1.088,7.844-1.088,15.741v15.404H0V74.59z"/>
	<path fill="#FFFFFF" d="M61.732,105.025l4.94,2.596c-1.621,3.184-3.492,5.749-5.615,7.703c-2.124,1.953-4.512,3.439-7.166,4.458
		c-2.654,1.019-5.657,1.528-9.009,1.528c-7.431,0-13.241-2.436-17.431-7.307c-4.191-4.87-6.286-10.374-6.286-16.515
		c0-5.778,1.773-10.927,5.321-15.448c4.497-5.749,10.517-8.624,18.06-8.624c7.766,0,13.967,2.944,18.604,8.832
		c3.296,4.16,4.972,9.351,5.028,15.575H27.195c0.111,5.289,1.802,9.627,5.071,13.01s7.307,5.074,12.114,5.074
		c2.318,0,4.575-0.401,6.769-1.208c2.193-0.806,4.058-1.877,5.595-3.212C58.282,110.154,59.944,108,61.732,105.025z M61.732,92.76
		c-0.782-3.125-1.921-5.624-3.416-7.494c-1.496-1.869-3.472-3.377-5.931-4.521s-5.044-1.717-7.754-1.717
		c-4.472,0-8.314,1.438-11.527,4.312c-2.348,2.095-4.122,5.233-5.323,9.421H61.732z"/>
	<path fill="#FFFFFF" d="M119.029,84.051l-4.647,2.891c-4.015-5.332-9.492-7.998-16.434-7.998c-5.547,0-10.154,1.785-13.82,5.354
		c-3.666,3.569-5.499,7.903-5.499,13.006c0,3.318,0.843,6.44,2.53,9.366c1.686,2.929,4,5.199,6.941,6.817
		c2.941,1.615,6.237,2.424,9.889,2.424c6.691,0,12.154-2.664,16.392-7.995l4.647,3.058c-2.177,3.276-5.101,5.82-8.771,7.629
		c-3.67,1.806-7.85,2.711-12.539,2.711c-7.201,0-13.174-2.289-17.918-6.865c-4.745-4.577-7.117-10.146-7.117-16.704
		c0-4.41,1.109-8.505,3.328-12.288c2.219-3.78,5.268-6.73,9.147-8.854c3.878-2.121,8.219-3.183,13.02-3.183
		c3.014,0,5.924,0.46,8.729,1.381c2.805,0.923,5.184,2.122,7.138,3.601C116,79.879,117.661,81.764,119.029,84.051z"/>
	<path fill="#FFFFFF" d="M147.563,73.418c7.017,0,12.833,2.541,17.446,7.618c4.193,4.634,6.291,10.118,6.291,16.454
		c0,6.361-2.216,11.925-6.647,16.682c-4.432,4.76-10.128,7.141-17.089,7.141c-6.99,0-12.701-2.381-17.132-7.141
		c-4.432-4.757-6.647-10.318-6.647-16.682c0-6.309,2.096-11.778,6.291-16.411C134.688,75.971,140.518,73.418,147.563,73.418z
		 M147.542,79.152c-4.874,0-9.061,1.801-12.562,5.399c-3.501,3.603-5.251,7.955-5.251,13.062c0,3.293,0.798,6.362,2.395,9.21
		c1.596,2.847,3.752,5.044,6.47,6.595c2.717,1.549,5.7,2.322,8.949,2.322s6.231-0.773,8.948-2.322
		c2.717-1.551,4.874-3.748,6.47-6.595c1.596-2.848,2.394-5.917,2.394-9.21c0-5.107-1.756-9.462-5.272-13.062
		C156.567,80.953,152.388,79.152,147.542,79.152z"/>
	<path fill="#FFFFFF" d="M175.637,74.59h5.987v6.656c1.785-2.624,3.669-4.585,5.649-5.881c1.982-1.299,4.047-1.947,6.197-1.947
		c1.617,0,3.35,0.516,5.19,1.549l-3.056,4.94c-1.229-0.53-2.262-0.798-3.1-0.798c-1.954,0-3.838,0.805-5.65,2.41
		c-1.814,1.604-3.195,4.096-4.146,7.472c-0.726,2.596-1.087,7.844-1.087,15.741v15.404h-5.987L175.637,74.59L175.637,74.59z"/>
	<path fill="#FFFFFF" d="M244.318,57.007v63.13h-5.776v-7.828c-2.456,2.986-5.212,5.233-8.267,6.739
		c-3.058,1.509-6.399,2.263-10.027,2.263c-6.445,0-11.952-2.338-16.516-7.013c-4.563-4.674-6.846-10.36-6.846-17.062
		c0-6.557,2.303-12.166,6.908-16.828c4.604-4.66,10.145-6.991,16.62-6.991c3.737,0,7.123,0.795,10.151,2.386
		c3.029,1.592,5.687,3.979,7.975,7.158V57.007H244.318z M220.896,79.07c-3.262,0-6.272,0.802-9.031,2.402
		c-2.762,1.604-4.956,3.854-6.588,6.756c-1.631,2.897-2.445,5.965-2.445,9.197c0,3.207,0.822,6.272,2.467,9.199
		c1.646,2.93,3.855,5.206,6.628,6.838c2.773,1.632,5.749,2.445,8.929,2.445c3.207,0,6.246-0.809,9.115-2.424
		c2.872-1.618,5.081-3.807,6.629-6.565c1.547-2.761,2.319-5.868,2.319-9.325c0-5.269-1.735-9.673-5.206-13.214
		C230.242,80.841,225.971,79.07,220.896,79.07z"/>
	<path fill="#FFFFFF" d="M255.335,55.835c1.333,0,2.474,0.475,3.418,1.424c0.944,0.949,1.416,2.093,1.416,3.433
		c0,1.312-0.472,2.442-1.416,3.391s-2.085,1.423-3.418,1.423c-1.308,0-2.433-0.474-3.378-1.423
		c-0.943-0.949-1.416-2.079-1.416-3.391c0-1.339,0.473-2.484,1.416-3.433C252.902,56.31,254.027,55.835,255.335,55.835z
		 M252.424,74.59h5.862v45.549h-5.862V74.59L252.424,74.59z"/>
	<path fill="#FFFFFF" d="M266.182,74.59h5.861v8.164c2.346-3.125,4.939-5.463,7.787-7.012c2.846-1.551,5.943-2.324,9.294-2.324
		c3.403,0,6.426,0.865,9.063,2.596c2.638,1.729,4.584,4.062,5.838,6.99c1.257,2.932,1.886,7.494,1.886,13.689v23.443h-5.861V98.41
		c0-5.247-0.217-8.749-0.651-10.508c-0.679-3.016-1.981-5.28-3.907-6.803c-1.927-1.521-4.438-2.281-7.536-2.281
		c-3.547,0-6.723,1.172-9.526,3.517s-4.655,5.247-5.548,8.707c-0.559,2.261-0.837,6.394-0.837,12.394v16.703h-5.862V74.59
		L266.182,74.59z"/>
	<path fill="#FFFFFF" d="M353.452,74.59h5.859v36.297c0,6.393-0.559,11.066-1.674,14.024c-1.534,4.187-4.2,7.409-7.995,9.671
		c-3.797,2.261-8.359,3.391-13.689,3.391c-3.907,0-7.417-0.554-10.528-1.658c-3.113-1.106-5.646-2.59-7.6-4.45
		c-1.954-1.862-3.755-4.585-5.4-8.166h6.364c1.732,3.015,3.968,5.247,6.706,6.698c2.737,1.449,6.133,2.176,10.186,2.176
		c3.996,0,7.37-0.743,10.122-2.23c2.754-1.488,4.716-3.359,5.891-5.613c1.174-2.252,1.76-5.89,1.76-10.91v-2.344
		c-2.207,2.791-4.903,4.934-8.089,6.426c-3.187,1.494-6.564,2.238-10.142,2.238c-4.189,0-8.13-1.039-11.816-3.117
		c-3.688-2.08-6.538-4.877-8.549-8.395c-2.013-3.518-3.019-7.383-3.019-11.598s1.048-8.141,3.144-11.784
		c2.095-3.644,4.994-6.522,8.696-8.646c3.701-2.121,7.605-3.182,11.711-3.182c3.409,0,6.589,0.705,9.535,2.114
		c2.948,1.409,5.79,3.733,8.527,6.97V74.59L353.452,74.59z M336.163,79.07c-3.323,0-6.406,0.802-9.254,2.406
		c-2.845,1.604-5.079,3.822-6.696,6.655c-1.619,2.834-2.43,5.897-2.43,9.188c0,4.996,1.676,9.127,5.023,12.394
		c3.351,3.265,7.689,4.897,13.02,4.897c5.387,0,9.721-1.619,13-4.855c3.277-3.238,4.919-7.495,4.919-12.771
		c0-3.432-0.754-6.493-2.261-9.188c-1.507-2.693-3.643-4.82-6.404-6.386C342.315,79.852,339.344,79.07,336.163,79.07z"/>
</g>
<g>
	<path fill="#FFFFFF" d="M-42.174,67.587c0.783-3.169,1.23-6.438,1.23-9.768c0-22.219-18.067-40.29-40.292-40.29
		c-16.446,0-30.973,9.929-37.154,24.734c-0.744-0.042-1.466-0.137-2.215-0.137c-21.855,0-39.643,17.781-39.643,39.635
		c0,21.857,17.788,39.643,39.643,39.643h0.229h68.345h7.871c14.896,0,27.007-12.115,27.007-27.015
		C-17.152,80.179-28.223,68.62-42.174,67.587"/>
	<path fill="#231F20" d="M-69.46,59.175c-10.562,0-19.12,8.56-19.12,19.121c0,3.874,1.152,7.474,3.139,10.488h-13.235
		c1.986-3.015,3.149-6.614,3.149-10.488c0-10.548-8.553-19.101-19.108-19.101c-10.55,0-19.103,8.553-19.103,19.101
		c0,10.548,8.553,19.105,19.103,19.105h44.778c0.129,0.003,0.263,0.02,0.397,0.02c10.561,0,19.125-8.563,19.125-19.125
		C-50.335,67.735-58.899,59.175-69.46,59.175 M-124.917,78.296c0-5.669,4.615-10.281,10.282-10.281
		c5.678,0,10.287,4.612,10.287,10.281c0,5.67-4.609,10.284-10.287,10.284C-120.302,88.58-124.917,83.966-124.917,78.296
		 M-69.46,88.603c-5.678,0-10.304-4.623-10.304-10.307c0-5.675,4.626-10.301,10.304-10.301s10.304,4.626,10.304,10.301
		C-59.156,83.979-63.782,88.603-69.46,88.603"/>
</g>
</svg>
