<?xml version="1.0" encoding="utf-8"?>
<!-- Generator: Adobe Illustrator 21.1.0, SVG Export Plug-In . SVG Version: 6.00 Build 0)  -->
<svg version="1.1" id="Layer_1" xmlns="http://www.w3.org/2000/svg" xmlns:xlink="http://www.w3.org/1999/xlink" x="0px" y="0px"
	 viewBox="0 0 434.6 107.7" style="enable-background:new 0 0 434.6 107.7;" xml:space="preserve">
<style type="text/css">
	.st0{fill:#FFFFFF;}
	.st1{fill:#231F20;}
	.st2{enable-background:new    ;}
</style>
<g id="bg_black">
</g>
<g>
	<g>
		<path class="st0" d="M91.1,54c0.6-2.4,0.9-4.9,0.9-7.5c0-17-13.9-30.9-30.9-30.9c-12.6,0-23.7,7.6-28.5,18.9
			c-0.6,0-1.1-0.1-1.7-0.1c-16.6,0-30.2,13.7-30.2,30.4s13.7,30.4,30.4,30.4h0.2h52.3h6c11.5,0,20.7-9.3,20.7-20.7
			C110.3,63.7,101.9,54.8,91.1,54"/>
		<path class="st1" d="M78.3,58.8c0-12.6-10.2-22.7-22.7-22.7S32.7,46.3,32.7,58.8c0,0.1,0,0.1,0,0.2v3.1c0,4,0.9,6.3,2,8.5
			c1.2,2.3,4.6,4.4,7.7,4.4h2.5c0.8,0,1.5-0.7,1.5-1.5V61.9c0-1.7-1.3-3-3-3h-1c-1.4,0-3.7,0.6-4.8,2l0,0v-2l0,0c0,0,0-0.1,0-0.2
			c0-9.9,8.1-17.9,17.9-17.9s17.9,8.1,17.9,17.9c0,0.1,0,0.1,0,0.2l0,0v2l0,0c-1.1-1.4-3.4-2-4.8-2h-1c-1.7,0-3,1.3-3,3v11.5
			c0,0.8,0.7,1.5,1.5,1.5h2.5c1.6,0,3.2-0.5,4.6-1.4c-0.9,4.6-4.3,8.3-8.7,9.6c-0.4-2-2.2-3.6-4.4-3.6c-2.5,0-4.5,2-4.5,4.5
			s2,4.5,4.5,4.5c0.1,0,0.1,0,0.2,0h1.1c9.4-0.2,16.8-7.8,16.8-17.1L78.3,58.8L78.3,58.8C78.3,58.9,78.3,58.8,78.3,58.8"/>
	</g>
	<g class="st2">
		<path class="st0" d="M155.3,20.9l-3.4,2.1c-2.9-3.9-6.9-5.8-12-5.8c-4,0-7.4,1.3-10.1,3.9c-2.7,2.6-4,5.7-4,9.5
			c0,2.4,0.6,4.7,1.8,6.8c1.2,2.1,2.9,3.8,5,5s4.5,1.8,7.2,1.8c4.9,0,8.8-1.9,11.9-5.8l3.4,2.2c-1.6,2.4-3.7,4.2-6.4,5.5
			c-2.7,1.3-5.7,2-9.1,2c-5.2,0-9.6-1.7-13-5s-5.2-7.4-5.2-12.2c0-3.2,0.8-6.2,2.4-8.9c1.6-2.8,3.8-4.9,6.7-6.4
			c2.8-1.5,6-2.3,9.5-2.3c2.2,0,4.3,0.3,6.3,1c2,0.7,3.8,1.5,5.2,2.6C153.1,17.9,154.3,19.3,155.3,20.9z"/>
		<path class="st0" d="M158.9,1.3h4.3v45.9h-4.3V1.3z"/>
		<path class="st0" d="M183.8,13.2c5.1,0,9.3,1.8,12.7,5.5c3.1,3.4,4.6,7.4,4.6,12c0,4.6-1.6,8.7-4.8,12.1
			c-3.2,3.5-7.4,5.2-12.4,5.2c-5.1,0-9.2-1.7-12.5-5.2c-3.2-3.5-4.8-7.5-4.8-12.1c0-4.6,1.5-8.6,4.6-11.9
			C174.4,15.1,178.6,13.2,183.8,13.2z M183.7,17.4c-3.5,0-6.6,1.3-9.1,3.9c-2.5,2.6-3.8,5.8-3.8,9.5c0,2.4,0.6,4.6,1.7,6.7
			c1.2,2.1,2.7,3.7,4.7,4.8c2,1.1,4.1,1.7,6.5,1.7s4.5-0.6,6.5-1.7c2-1.1,3.5-2.7,4.7-4.8c1.2-2.1,1.7-4.3,1.7-6.7
			c0-3.7-1.3-6.9-3.8-9.5C190.3,18.7,187.3,17.4,183.7,17.4z"/>
		<path class="st0" d="M204.4,14h4.3v15.5c0,3.8,0.2,6.4,0.6,7.8c0.6,2,1.8,3.6,3.5,4.8c1.7,1.2,3.8,1.8,6.1,1.8
			c2.4,0,4.4-0.6,6.1-1.7c1.7-1.1,2.8-2.7,3.4-4.5c0.4-1.3,0.6-4,0.6-8.1V14h4.4v16.3c0,4.6-0.5,8-1.6,10.3s-2.7,4.1-4.8,5.4
			c-2.1,1.3-4.8,2-8.1,2c-3.2,0-5.9-0.7-8.1-2c-2.2-1.3-3.8-3.1-4.8-5.5c-1.1-2.3-1.6-5.9-1.6-10.6V14z"/>
	</g>
	<g class="st2">
		<path class="st0" d="M270.8,1.3v45.9h-4.2v-5.7c-1.8,2.2-3.8,3.8-6,4.9c-2.2,1.1-4.7,1.6-7.3,1.6c-4.7,0-8.7-1.7-12-5.1
			s-5-7.5-5-12.4c0-4.8,1.7-8.9,5-12.2c3.3-3.4,7.4-5.1,12.1-5.1c2.7,0,5.2,0.6,7.4,1.7c2.2,1.2,4.1,2.9,5.8,5.2V1.3H270.8z
			 M253.8,17.3c-2.4,0-4.6,0.6-6.6,1.7c-2,1.2-3.6,2.8-4.8,4.9s-1.8,4.3-1.8,6.7c0,2.3,0.6,4.6,1.8,6.7c1.2,2.1,2.8,3.8,4.8,5
			c2,1.2,4.2,1.8,6.5,1.8c2.3,0,4.5-0.6,6.6-1.8c2.1-1.2,3.7-2.8,4.8-4.8c1.1-2,1.7-4.3,1.7-6.8c0-3.8-1.3-7-3.8-9.6
			C260.6,18.6,257.5,17.3,253.8,17.3z"/>
	</g>
	<g class="st2">
		<path class="st0" d="M155.3,67.7l-3.4,2.1c-2.9-3.9-6.9-5.8-12-5.8c-4,0-7.4,1.3-10.1,3.9s-4,5.7-4,9.5c0,2.4,0.6,4.7,1.8,6.8
			c1.2,2.1,2.9,3.8,5,5c2.1,1.2,4.5,1.8,7.2,1.8c4.9,0,8.8-1.9,11.9-5.8l3.4,2.2c-1.6,2.4-3.7,4.2-6.4,5.5c-2.7,1.3-5.7,2-9.1,2
			c-5.2,0-9.6-1.7-13-5c-3.5-3.3-5.2-7.4-5.2-12.2c0-3.2,0.8-6.2,2.4-8.9c1.6-2.8,3.8-4.9,6.7-6.4c2.8-1.5,6-2.3,9.5-2.3
			c2.2,0,4.3,0.3,6.3,1c2,0.7,3.8,1.5,5.2,2.6C153.1,64.6,154.3,66,155.3,67.7z"/>
		<path class="st0" d="M175.2,59.9c5.1,0,9.3,1.8,12.7,5.5c3.1,3.4,4.6,7.4,4.6,12c0,4.6-1.6,8.7-4.8,12.1
			c-3.2,3.5-7.4,5.2-12.4,5.2c-5.1,0-9.2-1.7-12.5-5.2c-3.2-3.5-4.8-7.5-4.8-12.1c0-4.6,1.5-8.6,4.6-11.9
			C165.8,61.8,170.1,59.9,175.2,59.9z M175.2,64.1c-3.5,0-6.6,1.3-9.1,3.9c-2.5,2.6-3.8,5.8-3.8,9.5c0,2.4,0.6,4.6,1.7,6.7
			c1.2,2.1,2.7,3.7,4.7,4.8c2,1.1,4.1,1.7,6.5,1.7s4.5-0.6,6.5-1.7c2-1.1,3.5-2.7,4.7-4.8c1.2-2.1,1.7-4.3,1.7-6.7
			c0-3.7-1.3-6.9-3.8-9.5S178.7,64.1,175.2,64.1z"/>
		<path class="st0" d="M196.4,60.8h4.3v5.9c1.7-2.3,3.6-4,5.7-5.1s4.3-1.7,6.8-1.7c2.5,0,4.7,0.6,6.6,1.9c1.9,1.3,3.3,3,4.2,5.1
			c0.9,2.1,1.4,5.5,1.4,10v17.1h-4.3V78.1c0-3.8-0.2-6.4-0.5-7.6c-0.5-2.2-1.4-3.8-2.8-4.9c-1.4-1.1-3.2-1.7-5.5-1.7
			c-2.6,0-4.9,0.9-6.9,2.6c-2,1.7-3.4,3.8-4,6.3c-0.4,1.6-0.6,4.6-0.6,9v12.2h-4.3V60.8z"/>
		<path class="st0" d="M234.2,48.5h4.3v12.3h6.8v3.7h-6.8v29.4h-4.3V64.5h-5.8v-3.7h5.8V48.5z"/>
		<path class="st0" d="M280.8,60.8v33.1h-4.2v-5.7c-1.8,2.2-3.8,3.8-6,4.9c-2.2,1.1-4.7,1.6-7.3,1.6c-4.7,0-8.7-1.7-12-5.1
			s-5-7.5-5-12.4c0-4.8,1.7-8.9,5-12.2s7.4-5.1,12.1-5.1c2.7,0,5.2,0.6,7.4,1.7c2.2,1.2,4.1,2.9,5.8,5.2v-6.1H280.8z M263.7,64.1
			c-2.4,0-4.6,0.6-6.6,1.7c-2,1.2-3.6,2.8-4.8,4.9c-1.2,2.1-1.8,4.3-1.8,6.7c0,2.3,0.6,4.6,1.8,6.7c1.2,2.1,2.8,3.8,4.8,5
			s4.2,1.8,6.5,1.8c2.3,0,4.5-0.6,6.6-1.8c2.1-1.2,3.7-2.8,4.8-4.8c1.1-2,1.7-4.3,1.7-6.8c0-3.8-1.3-7-3.8-9.6
			C270.5,65.3,267.4,64.1,263.7,64.1z"/>
		<path class="st0" d="M318.6,67.7l-3.4,2.1c-2.9-3.9-6.9-5.8-12-5.8c-4,0-7.4,1.3-10.1,3.9c-2.7,2.6-4,5.7-4,9.5
			c0,2.4,0.6,4.7,1.8,6.8c1.2,2.1,2.9,3.8,5,5c2.1,1.2,4.5,1.8,7.2,1.8c4.9,0,8.8-1.9,11.9-5.8l3.4,2.2c-1.6,2.4-3.7,4.2-6.4,5.5
			c-2.7,1.3-5.7,2-9.1,2c-5.2,0-9.6-1.7-13-5c-3.5-3.3-5.2-7.4-5.2-12.2c0-3.2,0.8-6.2,2.4-8.9c1.6-2.8,3.8-4.9,6.7-6.4
			c2.8-1.5,6-2.3,9.5-2.3c2.2,0,4.3,0.3,6.3,1c2,0.7,3.8,1.5,5.2,2.6C316.4,64.6,317.6,66,318.6,67.7z"/>
	</g>
	<g class="st2">
		<path class="st0" d="M324.7,48.5h4.3v12.3h6.8v3.7h-6.8v29.4h-4.3V64.5h-5.8v-3.7h5.8V48.5z"/>
	</g>
	<g class="st2">
		<path class="st0" d="M347.7,60.8h4.3v6.1c1.7-2.3,3.6-4,5.8-5.2s4.6-1.7,7.3-1.7c4.7,0,8.7,1.7,12.1,5.1c3.3,3.4,5,7.5,5,12.2
			c0,4.9-1.7,9-5,12.4c-3.3,3.4-7.3,5.1-12,5.1c-2.6,0-5.1-0.5-7.3-1.6c-2.2-1.1-4.2-2.7-6-4.9v17.8h-4.3V60.8z M364.8,64.1
			c-3.7,0-6.8,1.3-9.3,3.9c-2.5,2.6-3.8,5.8-3.8,9.6c0,2.5,0.6,4.8,1.7,6.8c1.1,2,2.7,3.6,4.8,4.8c2.1,1.2,4.3,1.8,6.6,1.8
			c2.3,0,4.4-0.6,6.5-1.8s3.6-2.8,4.8-5c1.2-2.1,1.8-4.4,1.8-6.7c0-2.4-0.6-4.6-1.8-6.7c-1.2-2.1-2.8-3.7-4.8-4.9
			C369.3,64.6,367.2,64.1,364.8,64.1z"/>
		<path class="st0" d="M384.7,60.8h4.4v4.8c1.3-1.9,2.7-3.3,4.1-4.3c1.4-0.9,2.9-1.4,4.5-1.4c1.2,0,2.4,0.4,3.8,1.1l-2.2,3.6
			c-0.9-0.4-1.6-0.6-2.3-0.6c-1.4,0-2.8,0.6-4.1,1.8c-1.3,1.2-2.3,3-3,5.4c-0.5,1.9-0.8,5.7-0.8,11.5v11.2h-4.4V60.8z"/>
		<path class="st0" d="M416.6,59.9c5.1,0,9.3,1.8,12.7,5.5c3.1,3.4,4.6,7.4,4.6,12c0,4.6-1.6,8.7-4.8,12.1
			c-3.2,3.5-7.4,5.2-12.4,5.2c-5.1,0-9.2-1.7-12.5-5.2c-3.2-3.5-4.8-7.5-4.8-12.1c0-4.6,1.5-8.6,4.6-11.9
			C407.2,61.8,411.4,59.9,416.6,59.9z M416.5,64.1c-3.5,0-6.6,1.3-9.1,3.9s-3.8,5.8-3.8,9.5c0,2.4,0.6,4.6,1.7,6.7
			c1.2,2.1,2.7,3.7,4.7,4.8s4.1,1.7,6.5,1.7s4.5-0.6,6.5-1.7c2-1.1,3.5-2.7,4.7-4.8c1.2-2.1,1.7-4.3,1.7-6.7c0-3.7-1.3-6.9-3.8-9.5
			C423.1,65.4,420.1,64.1,416.5,64.1z"/>
	</g>
</g>
</svg>
