<?xml version="1.0" encoding="utf-8"?>
<!-- Generator: Adobe Illustrator 16.0.0, SVG Export Plug-In . SVG Version: 6.00 Build 0)  -->
<!DOCTYPE svg PUBLIC "-//W3C//DTD SVG 1.1//EN" "http://www.w3.org/Graphics/SVG/1.1/DTD/svg11.dtd">
<svg version="1.1" id="Layer_1" xmlns="http://www.w3.org/2000/svg" xmlns:xlink="http://www.w3.org/1999/xlink" x="0px" y="0px"
	 width="50.215px" height="36.564px" viewBox="0 0 50.215 36.564" enable-background="new 0 0 50.215 36.564" xml:space="preserve">
<path fill="#FFFFFF" d="M41.358,17.623c0.273-1.106,0.43-2.248,0.43-3.411c0-7.758-6.309-14.067-14.068-14.067
	c-5.743,0-10.815,3.467-12.973,8.636c-0.26-0.015-0.512-0.048-0.773-0.048c-7.631,0-13.842,6.208-13.842,13.839
	c0,7.632,6.211,13.842,13.842,13.842h0.08h23.864h2.748c5.201,0,9.43-4.23,9.43-9.433C50.095,22.02,46.229,17.984,41.358,17.623"/>
<path fill="#414042" d="M31.831,14.686c-3.688,0-6.676,2.989-6.676,6.676c0,1.353,0.402,2.609,1.096,3.662h-4.622
	c0.693-1.053,1.1-2.31,1.1-3.662c0-3.683-2.986-6.669-6.672-6.669c-3.684,0-6.67,2.986-6.67,6.669c0,3.683,2.986,6.671,6.67,6.671
	h15.635c0.045,0.001,0.092,0.007,0.139,0.007c3.688,0,6.678-2.99,6.678-6.678S35.519,14.686,31.831,14.686 M12.467,21.362
	c0-1.98,1.611-3.59,3.59-3.59c1.982,0,3.592,1.61,3.592,3.59c0,1.979-1.609,3.591-3.592,3.591
	C14.079,24.953,12.467,23.342,12.467,21.362 M31.831,24.961c-1.982,0-3.598-1.614-3.598-3.599c0-1.982,1.615-3.597,3.598-3.597
	s3.598,1.615,3.598,3.597C35.429,23.347,33.813,24.961,31.831,24.961"/>
</svg>
